<?xml version="1.0" ?><!DOCTYPE svg  PUBLIC '-//W3C//DTD SVG 1.1//EN'  'http://www.w3.org/Graphics/SVG/1.1/DTD/svg11.dtd'>
<svg version="1.1" id="Capa_1" xmlns="http://www.w3.org/2000/svg" xmlns:xlink="http://www.w3.org/1999/xlink" x="0px" y="0px"
	 viewBox="0 0 626 332.5" xml:space="preserve">
<g>
	<path class="st0" d="M131.3,49.2C34.7,49.2,0,104.8,0,114.4c0,29.2,36.6,36,36.6,31c0-28.2,37.5-73.4,101.4-73.4
		c19.7,0,37.3,21.2,37.3,40.3c0,30.1-56.1,89.7-104.6,104.6c4.1-31.8,45.5-86.2,45.5-95.7c0-14.1-33.6-33.4-33.6-25.1
		c0,30.3-45.3,97.9-45.3,107.9c0,4.3,9.1,11.5,15.8,16.5c-1.1,0-2.4,0-3.5,0c-5.8,0-15.2-1.5-19.1-6.5c-4.3-6.9-1.1-10.2-2.6-11
		c-2.8-0.9-8.2,3.9-8.2,12.3c0,15.6,29.5,42,43.5,42c67.6,0,145.1-91.6,145.1-136C208.4,91.2,177.2,49.2,131.3,49.2z"/>
	<path class="st0" d="M265.3,108.3c0-6.5,7.8-23.8,12.6-34C281.1,66.9,251,52,248.2,52c0,3.9-15.4,23.8-15.4,35.3
		C232.8,97.3,261.2,108.3,265.3,108.3z"/>
	<path class="st0" d="M478.4,221.4c-4.5,0-9.1,0-13.4,0.4c14.7-39.4,26.4-75.8,28.4-80.4c3.5-7.6-26.6-22.5-29.7-22.5
		c0,0-4.8,8.4-11.5,20.1c-9.3-10-33.1-18.4-43.3-18.4c-8.3,0-26.5,30.2-33,54.9c-10.1,14.2-22.4,31-29.4,38.6
		c7.8-27.5,22.7-62.8,22.7-71.5c0-6.5-24.3-23.8-29.2-23.8c-7.8,0-26,31-39.9,58c6.7-18,13-34,13-36.8c0-4.1-17.1-18.6-28.2-18.6
		c0,4.1-2.1,11.7-5.1,20.7c-0.1,0.1-0.1,0.1-0.1,0.1l-46.6,61.9c4.5-29,21.2-63.9,24.9-71.9c3.2-7.4-26.9-22.3-29.7-22.3
		c0,3.5-29.5,62.8-29.5,88.4c0,8.9,23.6,23.4,31.6,26.4c2.2,1.5,4.3,2.8,6.7,2.8c1.6,0,11.1-13.6,21.4-29.1c-1.9,5.3-3,9.3-3,11.2
		c0,5.2,26,21,29.2,21c3.2-11,30.8-57.2,47.4-81.7c-8.4,25.8-20.8,59.1-20.8,67.8c0,5.2,26.6,23,30.1,23c0-0.2,0-0.2,0-0.2
		c0.4,0,0.9,0.2,1.3,0.2c1.7,0,18.1-22.2,33-42.8c7.2,9.1,28.1,19.6,37.3,23.3c1.5,0.9,3,1.3,4.3,1.3c4.1,0,20.8-30.3,35.7-57.6
		c-5.8,19.3-13.4,41.4-21.4,62.6c-41.4,10-69.3,32.3-69.3,53.5c0,40.7,26.9,47.9,43.1,47.9c13,0,31.2-36.6,47.9-77.3
		c32.5,0.4,42.7,16.9,42.7,29.9c0,5.4,16.2-11.5,16.2-19.3C512.7,242.1,502,221.4,478.4,221.4z M407,203.4
		c2.8-17.5,21-60.6,34.2-60.6c3,0,5.6,0.9,7.8,1.7C432.3,172.8,407.6,212.9,407,203.4z M393.1,307.8c-1.3,0-4.5-2.2-4.5-22.1
		c0-13.2,13.4-24.5,32.3-30.5C408.7,285,397.4,307.8,393.1,307.8z"/>
	<path class="st0" d="M622.7,143.6c-6.7,11.9-18.6,26-31.4,32.3c-2.2,0.9-4.8,2.2-7.8,3c3.5-7.8,5.2-14.1,5-17.5
		c-1.7-16-11-21-19.5-22.5c-4.5-4.3-26.2-19.9-35.5-19.9c-22.1,0-48.9,41.2-45.3,76.9c1.3,11.9,26,34.9,40.5,34.9
		c18.6,0,36.4-19.7,47.6-38.3c6.5-0.6,13.2-2.6,19.9-5.8c10.2-4.8,20.6-12.1,26.6-20.1C630.1,156.4,622.7,143.6,622.7,143.6z
		 M525,217.9c-2.4,0-2.8-5-2.8-6.5c-1.5-13.6,4.8-30.3,13.9-44.2c1.7,4.3,4.3,8,6.5,10.8c3.5,4.1,7.6,7.8,11.7,10
		C545.6,203.6,534.1,217.9,525,217.9z M559.7,177.4c-5.6-3.2-12.8-11.5-13.6-19.1c0-1.5,0-2.8,0.4-4.1c3.9-4.3,7.8-7.8,11.9-10.2
		c3.7,0.7,8,2.6,8.9,9.3C567.7,157.7,564.6,167,559.7,177.4z"/>
</g>
</svg>
