<?xml version="1.0" ?><!DOCTYPE svg  PUBLIC '-//W3C//DTD SVG 1.1//EN'  'http://www.w3.org/Graphics/SVG/1.1/DTD/svg11.dtd'><svg  id="Layer_1" style="enable-background:new 0 0 32 32;" version="1.1" viewBox="0 0 32 32" width="32px" xml:space="preserve" xmlns="http://www.w3.org/2000/svg" xmlns:xlink="http://www.w3.org/1999/xlink">
<g><path d="M24.25,12.25H1.75C1.3359375,12.25,1,12.5859375,1,13s0.3359375,0.75,0.75,0.75h22.5   c0.4140625,0,0.75-0.3359375,0.75-0.75S24.6640625,12.25,24.25,12.25z"/><path d="M1.75,7.75h22.5C24.6640625,7.75,25,7.4140625,25,7s-0.3359375-0.75-0.75-0.75H1.75   C1.3359375,6.25,1,6.5859375,1,7S1.3359375,7.75,1.75,7.75z"/><path d="M24.25,18.25H1.75C1.3359375,18.25,1,18.5859375,1,19s0.3359375,0.75,0.75,0.75h22.5   c0.4140625,0,0.75-0.3359375,0.75-0.75S24.6640625,18.25,24.25,18.25z" /></g></svg>